<?xml version="1.0" encoding="utf-8"?>
<!-- Generator: Adobe Illustrator 18.0.0, SVG Export Plug-In . SVG Version: 6.00 Build 0)  -->
<!DOCTYPE svg PUBLIC "-//W3C//DTD SVG 1.1//EN" "http://www.w3.org/Graphics/SVG/1.1/DTD/svg11.dtd">
<svg version="1.1" id="Calque_1" xmlns="http://www.w3.org/2000/svg" xmlns:xlink="http://www.w3.org/1999/xlink" x="0px" y="0px"
	 viewBox="42 324.9 543 180" enable-background="new 42 324.9 543 180" xml:space="preserve">
<path fill="#EAC426" d="M160.8,429.1c-6.5,8.2-13.2,16.1-20,23.7c-6.9,7.6-13.8,14.3-20.7,20.2c-6.9,5.9-13.8,10.6-20.7,14.1
	c-6.9,3.5-13.5,5.3-19.8,5.3c-4.4,0-7.8-0.5-10.4-1.5c-2.6-1-4.6-2.2-5.9-3.6c-1.4-1.4-2.3-2.8-2.8-4.4c-0.5-1.5-0.7-2.9-0.7-4.1
	c0-2.2,0.7-4.2,2-5.7c1.3-1.6,3.2-2.4,5.5-2.4c2.1,0,3.8,0.7,5,2.2c1.2,1.5,1.8,3.2,1.8,5.2c0,1.2-0.3,2.4-1,3.6
	c-0.7,1.2-1.6,1.9-2.8,2.2c1.2,1.9,2.8,3.1,5,3.7c2.1,0.6,4.3,0.9,6.5,0.9c5.7,0,11.7-1.7,17.9-5c6.3-3.3,12.6-7.6,19-13
	c6.4-5.4,12.8-11.4,19.1-18.2c6.3-6.8,12.4-13.8,18.2-20.9c2.5-3.2,5.6-7.1,9.4-11.7c3.8-4.6,8-9.6,12.8-15.1
	c4.8-5.4,9.9-10.9,15.6-16.6c5.6-5.6,11.6-10.9,17.9-16c6.3-5,12.9-9.5,19.8-13.5c6.9-4,13.9-6.9,21-8.9l0.6,0.8
	c-4.5,4.1-9.2,9.2-14.1,15.3c-4.9,6.1-9.7,12.7-14.4,19.7c-4.7,7.1-9.2,14.5-13.4,22.3c-4.2,7.8-8,15.6-11.2,23.3
	s-5.8,15.2-7.7,22.3c-1.9,7.1-2.9,13.7-2.9,19.6c0,4.1,0.7,7.6,2.1,10.4c1.4,2.8,4.2,4.3,8.4,4.3c2.5,0,5.4-0.9,8.6-2.8
	c3.2-1.8,6.6-4.3,10.2-7.3c3.6-3,7.1-6.4,10.6-10.1c3.5-3.7,6.8-7.4,10-11s6-7.1,8.5-10.3s4.5-5.8,5.9-7.8l1.4,0.6
	c-4.5,5.7-9.3,11.7-14.3,18c-5,6.3-10.1,12.1-15.3,17.3c-5.2,5.2-10.3,9.5-15.6,13c-5.2,3.4-10.2,5.2-15,5.2c-3.2,0-5.8-0.6-8-1.7
	c-2.2-1.1-4-2.7-5.5-4.7c-1.5-2-2.5-4.2-3.2-6.7c-0.7-2.5-1-5.2-1-7.9c0-7.5,1.1-14.8,3.2-21.7c2.1-6.9,4.5-13.8,7.1-20.5
	L160.8,429.1L160.8,429.1z M189,426.8c5.9-12.3,13-24.3,21.1-36.1c8.1-11.8,17.7-22.9,28.8-33.5l-0.4-0.4c-7,3.4-13.8,7.7-20.5,12.7
	c-6.7,5-13.2,10.6-19.5,16.6c-6.3,6.1-12.5,12.6-18.5,19.4c-6,6.9-11.9,13.9-17.5,21.2L189,426.8L189,426.8z"/>
<g>
	<path fill="#EAC426" d="M232.7,405.8c0-9.5,0-11.3-0.1-13.2c-0.1-2.1-0.5-3.1-2.6-3.4c-0.5-0.1-1.6-0.1-2.2-0.1
		c-0.2,0-0.5-0.3-0.5-0.5c0-0.4,0.3-0.5,1-0.5c2.9,0,7.2,0.1,7.5,0.1c0.7,0,6-0.1,8-0.1c4.1,0,8.5,0.4,11.9,2.7
		c1.6,1.2,4.4,4.1,4.4,8.4c0,4.6-1.9,9-7.8,14c5.2,6.5,9.6,12.1,13.3,15.9c3.4,3.5,5.5,4.1,7.1,4.3c1.2,0.2,1.9,0.2,2.2,0.2
		c0.4,0,0.6,0.3,0.6,0.5c0,0.4-0.4,0.5-1.5,0.5h-4c-3.6,0-5.2-0.4-6.8-1.2c-2.7-1.4-5.1-4.4-8.7-9c-2.7-3.3-5.5-7.3-6.9-9
		c-0.3-0.3-0.4-0.4-0.9-0.4l-8.1-0.1c-0.3,0-0.4,0.1-0.4,0.5v1.4c0,5.9,0,10.7,0.3,13.2c0.2,1.8,0.6,3,2.5,3.3
		c0.9,0.1,2.2,0.3,2.8,0.3c0.4,0,0.5,0.3,0.5,0.5c0,0.3-0.3,0.5-1,0.5c-3.5,0-7.5-0.2-7.8-0.2c-0.1,0-4.3,0.2-6.3,0.2
		c-0.7,0-1-0.1-1-0.5c0-0.2,0.1-0.5,0.5-0.5c0.6,0,1.4-0.1,2-0.3c1.2-0.3,1.4-1.4,1.7-3.3c0.4-2.5,0.4-7.4,0.4-13.3v-10.9H232.7z
		 M238.2,411c0,0.4,0.1,0.6,0.4,0.8c0.9,0.5,4.2,0.9,7,0.9c1.5,0,3.3-0.1,4.8-1.1c2.2-1.4,3.8-4.7,3.8-9.4c0-7.7-4.2-12.1-11-12.1
		c-1.9,0-3.9,0.2-4.6,0.4c-0.3,0.1-0.5,0.4-0.5,0.7V411H238.2z"/>
	<path fill="#EAC426" d="M291.9,416.6c0,5.9,0,10.8,0.3,13.3c0.2,1.8,0.5,3,2.5,3.3c0.9,0.1,2.3,0.3,2.9,0.3c0.4,0,0.5,0.3,0.5,0.5
		c0,0.3-0.3,0.5-1,0.5c-3.5,0-7.5-0.2-7.9-0.2c-0.3,0-4.7,0.2-6.6,0.2c-0.7,0-1-0.1-1-0.5c0-0.2,0.1-0.4,0.5-0.4
		c0.6,0,1.3-0.1,1.9-0.3c1.3-0.3,1.7-1.5,1.9-3.3c0.3-2.5,0.3-7.4,0.3-13.3v-25.8L277,391c-4,0.1-5.5,0.5-6.4,2
		c-0.7,1.1-0.8,1.5-1,2c-0.1,0.5-0.4,0.6-0.7,0.6c-0.1,0-0.4-0.1-0.4-0.5c0-0.7,1.2-6.1,1.4-6.7c0.1-0.4,0.4-1.2,0.7-1.2
		c0.4,0,1.1,0.5,2.8,0.7c1.8,0.2,4.3,0.3,5,0.3h24c2.1,0,3.5-0.1,4.6-0.3c0.9-0.1,1.5-0.3,1.8-0.3s0.3,0.4,0.3,0.7
		c0,1.9-0.2,6.3-0.2,7c0,0.5-0.3,0.8-0.6,0.8c-0.3,0-0.4-0.2-0.5-1.1l-0.1-0.7c-0.2-1.9-1.6-3.3-7.7-3.4l-8-0.1L291.9,416.6
		L291.9,416.6z"/>
	<path fill="#EAC426" d="M315.9,433.6c-0.9-0.4-0.9-0.7-0.9-2.3c0-3,0.3-5.5,0.4-6.5c0-0.7,0.1-1,0.5-1c0.4,0,0.6,0.2,0.6,0.7
		s0,1.4,0.2,2.2c1,4.5,5.8,6.1,10.1,6.1c6.3,0,9.5-3.5,9.5-8.2c0-4.4-2.4-6.5-8-10.7l-2.9-2.2c-6.9-5.1-9.1-8.9-9.1-13.2
		c0-7.2,5.7-11.6,14.1-11.6c2.5,0,5.1,0.4,6.6,0.7c1.2,0.3,1.7,0.3,2.2,0.3c0.5,0,0.7,0.1,0.7,0.4c0,0.3-0.3,2.3-0.3,6.5
		c0,0.9-0.1,1.4-0.5,1.4c-0.4,0-0.5-0.3-0.6-0.8c-0.1-0.7-0.6-2.4-0.9-3c-0.4-0.7-2.5-3-8.2-3c-4.6,0-8.5,2.3-8.5,6.7
		c0,3.9,2,6.1,8.2,10.4l1.8,1.2c7.7,5.3,10.4,9.5,10.4,14.8c0,3.6-1.4,7.5-5.9,10.5c-2.7,1.7-6.7,2.2-10.1,2.2
		C322.2,435.3,318.5,434.8,315.9,433.6z"/>
</g>
<g>
	<path fill="#EAC426" d="M273,457.2c0.5-1.2,0.6-1.4,0.9-1.4c0.4,0,0.5,0.5,0.9,1.3c0.7,1.5,6.5,16,8.7,21.3
		c1.3,3.1,2.3,3.6,3.1,3.8c0.5,0.2,1.1,0.2,1.4,0.2c0.2,0,0.5,0.1,0.5,0.3c0,0.2-0.4,0.3-0.8,0.3c-0.5,0-3.2,0-5.7-0.1
		c-0.7,0-1.3,0-1.3-0.2s0.1-0.2,0.2-0.2c0.2-0.1,0.6-0.4,0.3-0.9l-3.3-8.1c-0.1-0.2-0.1-0.2-0.3-0.2h-8.4c-0.2,0-0.3,0.1-0.4,0.3
		l-2.1,5.6c-0.3,0.9-0.5,1.7-0.5,2.4c0,0.7,0.6,0.9,1.2,0.9h0.3c0.3,0,0.4,0.1,0.4,0.3c0,0.2-0.2,0.3-0.5,0.3
		c-0.9,0-2.9-0.1-3.3-0.1c-0.4,0-2.2,0.1-3.7,0.1c-0.5,0-0.7-0.1-0.7-0.3c0-0.2,0.2-0.3,0.3-0.3c0.2,0,0.8,0,1.1-0.1
		c1.7-0.2,2.4-1.4,3.1-3.2L273,457.2z M277,471.8c0.2,0,0.2-0.1,0.1-0.2l-3.6-9.6c-0.2-0.5-0.4-0.5-0.6,0l-3.4,9.6
		c0,0.2,0,0.2,0.1,0.2H277z"/>
	<path fill="#EAC426" d="M291.4,466.7c0-5.5,0-6.4-0.1-7.6s-0.3-1.8-1.5-1.9c-0.3,0-0.9-0.1-1.2-0.1c-0.1,0-0.3-0.2-0.3-0.3
		c0-0.2,0.2-0.3,0.6-0.3c1.7,0,3.8,0.1,4.2,0.1c0.4,0,2.6-0.1,3.7-0.1c0.4,0,0.6,0.1,0.6,0.3c0,0.1-0.2,0.3-0.3,0.3
		c-0.2,0-0.5,0-0.9,0.1c-1,0.2-1.2,0.8-1.2,1.9c-0.1,1.1-0.1,2.1-0.1,7.6v4.9c0,5.1,1.1,7.2,2.7,8.6c1.8,1.6,3.3,1.9,5.4,1.9
		c2.2,0,4.4-1,5.6-2.5c1.7-2,2.1-4.9,2.1-8.5v-4.4c0-5.5,0-6.4-0.1-7.6c0-1.1-0.2-1.8-1.4-1.9c-0.3,0-0.9-0.1-1.2-0.1
		c-0.2,0-0.3-0.2-0.3-0.3c0-0.2,0.2-0.3,0.6-0.3c1.6,0,3.7,0.1,3.9,0.1c0.2,0,2-0.1,3.1-0.1c0.4,0,0.6,0.1,0.6,0.3
		c0,0.1-0.1,0.3-0.3,0.3c-0.2,0-0.5,0-0.9,0.1c-1,0.2-1.2,0.8-1.3,1.9c-0.1,1.1,0,2.1,0,7.6v3.8c0,3.8-0.5,8.1-3.4,10.5
		c-2.6,2.3-5.5,2.6-7.6,2.6c-1.2,0-5-0.1-7.6-2.5c-1.8-1.7-3.2-4.1-3.2-9.2v-5.2H291.4z"/>
	<path fill="#EAC426" d="M328.1,469.5l-5.8-9.4c-0.8-1.4-1.5-2.4-2.8-2.7c-0.6-0.2-1.3-0.2-1.5-0.2s-0.3-0.2-0.3-0.3
		c0-0.2,0.2-0.2,0.6-0.2c1,0,4,0.1,4.3,0.1s2.3-0.1,3.6-0.1c0.5,0,0.6,0.1,0.6,0.2c0,0.2-0.1,0.3-0.3,0.3c-0.2,0-0.7,0-1,0.1
		c-0.3,0-0.5,0.3-0.5,0.5c0,0.3,0.2,0.8,0.4,1.2c1.5,2.8,2.9,5.3,4.8,8.3c1.1-1.5,4.9-7.4,5.2-8.2c0.3-0.5,0.4-0.8,0.4-1.2
		c0-0.2-0.2-0.5-0.6-0.6c-0.4-0.1-0.8-0.1-1-0.1s-0.3-0.2-0.3-0.3c0-0.2,0.2-0.2,0.6-0.2c1.4,0,2.9,0.1,3.2,0.1s1.8-0.1,3.1-0.1
		c0.4,0,0.6,0.1,0.6,0.2c0,0.1-0.1,0.3-0.4,0.3c-0.3,0-0.8,0-1.2,0.2c-1,0.3-1.7,1.2-2.7,2.8l-5.8,8.5c0.7,1.1,6.9,11.3,7.7,12.2
		c0.6,0.7,1,1.2,2.1,1.5c0.5,0.1,1,0.2,1.2,0.2s0.3,0.1,0.3,0.3c0,0.2-0.2,0.3-0.5,0.3c-2.2,0-4,0-5.9-0.1c-1,0-1.1-0.1-1.1-0.3
		c0-0.1,0.1-0.2,0.2-0.3c0.2,0,0.5-0.4,0.2-1c-2-3.4-4-6.8-6.2-10.4l-5.6,9.2c-0.3,0.6-0.5,1.2-0.5,1.6c0,0.3,0.2,0.5,0.6,0.6
		c0.2,0,0.5,0.1,0.7,0.1s0.3,0.2,0.3,0.3c0,0.2-0.2,0.2-0.5,0.2c-0.9,0-3.3-0.1-3.6-0.1c-0.3,0-2.1,0.1-3.3,0.1
		c-0.3,0-0.3-0.1-0.3-0.2c0-0.2,0.1-0.3,0.3-0.3c0.3,0,0.8-0.1,1.4-0.2c1.1-0.3,1.8-0.9,3-2.7L328.1,469.5z"/>
</g>
<g>
	<path fill="#EAC426" d="M364.1,466.7c0-5.5,0-6.4-0.1-7.6c-0.1-1.2-0.3-1.8-1.5-1.9c-0.3,0-0.9-0.1-1.2-0.1c-0.1,0-0.3-0.2-0.3-0.3
		c0-0.2,0.2-0.3,0.6-0.3c1.7,0,4,0.1,4.2,0.1c0.2,0,7.8,0,8.7,0c0.7,0,1.4-0.2,1.7-0.2c0.2,0,0.3-0.2,0.5-0.2c0.1,0,0.2,0.2,0.2,0.3
		c0,0.2-0.2,0.7-0.3,1.7c0,0.3-0.1,1.9-0.2,2.3c0,0.2-0.2,0.4-0.3,0.4c-0.2,0-0.3-0.2-0.3-0.5c0-0.2,0-0.8-0.2-1.2
		c-0.2-0.6-0.6-0.8-2.6-1.1c-0.6-0.1-4.8-0.1-5.2-0.1c-0.2,0-0.2,0.1-0.2,0.4v9.5c0,0.2,0,0.4,0.2,0.4c0.5,0,5.2,0,6.1-0.1
		s1.4-0.1,1.8-0.5c0.2-0.2,0.4-0.5,0.5-0.5s0.2,0.1,0.2,0.3c0,0.2-0.2,0.8-0.3,1.9c-0.1,0.7-0.2,2-0.2,2.3c0,0.3-0.1,0.7-0.3,0.7
		c-0.2,0-0.2-0.1-0.2-0.3c0-0.3,0-0.7-0.2-1.2c-0.1-0.5-0.5-0.9-1.9-1.1c-1-0.1-4.9-0.2-5.5-0.2c-0.2,0-0.2,0.1-0.2,0.2v2.9
		c0,1.2,0,5.3,0,6c0.1,2.4,0.7,2.8,4.3,2.8c1,0,2.7,0,3.6-0.4c1-0.4,1.4-1,1.7-2.4c0.1-0.4,0.2-0.5,0.4-0.5s0.2,0.3,0.2,0.5
		c0,0.2-0.3,2.6-0.5,3.4c-0.2,0.9-0.6,0.9-2,0.9c-2.7,0-4.8-0.1-6.3-0.1c-1.5-0.1-2.5-0.1-3-0.1c-0.1,0-0.8,0-1.6,0
		c-0.7,0-1.5,0.1-2.1,0.1c-0.4,0-0.6-0.1-0.6-0.3c0-0.1,0.1-0.3,0.3-0.3c0.3,0,0.8-0.1,1.1-0.2c0.7-0.1,0.8-0.8,1-1.9
		c0.2-1.4,0.2-4.2,0.2-7.6v-5.9H364.1z"/>
	<path fill="#EAC426" d="M388.4,478.3c0.1,2.9,0.4,3.8,1.4,4c0.7,0.2,1.5,0.2,1.8,0.2c0.2,0,0.3,0.1,0.3,0.3c0,0.2-0.2,0.3-0.7,0.3
		c-2.1,0-3.5-0.1-3.8-0.1c-0.3,0-1.9,0.1-3.5,0.1c-0.4,0-0.6,0-0.6-0.3c0-0.2,0.1-0.3,0.3-0.3c0.3,0,1,0,1.5-0.2
		c0.9-0.2,1-1.2,1-4.4v-20.1c0-1.4,0.2-1.8,0.5-1.8c0.4,0,1,0.7,1.4,1.1c0.6,0.6,5.9,6.2,11.5,12c3.6,3.7,7.5,7.9,8.6,9l-0.4-17.6
		c0-2.3-0.2-3.1-1.4-3.3c-0.7-0.1-1.5-0.2-1.8-0.2c-0.2,0-0.3-0.2-0.3-0.3c0-0.2,0.3-0.2,0.7-0.2c1.7,0,3.4,0.1,3.8,0.1
		c0.4,0,1.6-0.1,3.1-0.1c0.4,0,0.7,0,0.7,0.2c0,0.1-0.2,0.3-0.4,0.3c-0.2,0-0.5,0-0.9,0.1c-1.2,0.2-1.3,0.9-1.3,3.1l-0.1,20.6
		c0,2.3,0,2.5-0.3,2.5c-0.4,0-0.7-0.3-2.8-2.1c-0.4-0.3-5.6-5.5-9.5-9.5c-4.2-4.4-8.3-8.7-9.4-10L388.4,478.3z"/>
	<path fill="#EAC426" d="M421,479.8c-3.6-3.1-4.4-7.1-4.4-10.4c0-2.4,0.9-6.4,4.1-9.6c2.2-2.1,5.5-3.8,11.1-3.8
		c1.4,0,3.5,0.1,5.3,0.4c1.4,0.2,2.5,0.5,3.7,0.5c0.4,0,0.5,0.2,0.5,0.4c0,0.3-0.1,0.7-0.2,2c0,1.2,0,3.1-0.1,3.6
		c0,0.5-0.2,0.7-0.4,0.7s-0.3-0.2-0.3-0.7c0-1.4-0.6-2.8-1.5-3.5c-1.3-1.1-3.9-1.9-7.1-1.9c-4.7,0-6.9,1.2-8.2,2.4
		c-2.7,2.5-3.3,5.6-3.3,9.2c0,6.7,5.3,12.7,13.1,12.7c2.7,0,4.5-0.2,6-1.7c0.8-0.8,1.3-2.3,1.4-2.9c0.1-0.4,0.1-0.5,0.4-0.5
		c0.2,0,0.3,0.2,0.3,0.5c0,0.2-0.5,3.3-0.9,4.5c-0.2,0.7-0.3,0.8-0.9,1c-1.5,0.6-4.2,0.8-6.6,0.8C427.5,483.6,423.8,482.3,421,479.8
		z"/>
	<path fill="#EAC426" d="M472.1,472.9c0,3.4,0,6.2,0.2,7.6c0.1,1,0.2,1.7,1.3,1.9c0.5,0.1,1.3,0.2,1.6,0.2c0.2,0,0.3,0.2,0.3,0.3
		c0,0.2-0.2,0.3-0.6,0.3c-2,0-4.3-0.1-4.5-0.1c-0.2,0-2.5,0.1-3.6,0.1c-0.4,0-0.6-0.1-0.6-0.3c0-0.1,0.1-0.3,0.3-0.3
		c0.3,0,0.7-0.1,1.1-0.2c0.7-0.2,0.9-0.9,1-1.9c0.2-1.4,0.2-4.1,0.2-7.5v-3.5c0-0.2-0.1-0.2-0.2-0.2h-15.2c-0.1,0-0.2,0-0.2,0.2v3.5
		c0,3.4,0,6.1,0.2,7.5c0.1,1,0.2,1.7,1.3,1.9c0.5,0.1,1.3,0.2,1.7,0.2c0.2,0,0.3,0.2,0.3,0.3c0,0.2-0.2,0.3-0.6,0.3
		c-2,0-4.3-0.1-4.5-0.1c-0.2,0-2.5,0.1-3.6,0.1c-0.4,0-0.6-0.1-0.6-0.3c0-0.1,0.1-0.3,0.3-0.3c0.3,0,0.8-0.1,1.1-0.2
		c0.7-0.2,0.8-0.8,1-1.9c0.2-1.4,0.2-4.2,0.2-7.6v-6.2c0-5.5,0-6.4-0.1-7.6s-0.3-1.8-1.5-1.9c-0.3,0-0.9-0.1-1.2-0.1
		c-0.1,0-0.3-0.2-0.3-0.3c0-0.2,0.2-0.3,0.6-0.3c1.7,0,4,0.1,4.2,0.1s2.5-0.1,3.6-0.1c0.4,0,0.6,0.1,0.6,0.3c0,0.1-0.2,0.3-0.3,0.3
		c-0.2,0-0.5,0-0.9,0.1c-1,0.2-1.2,0.7-1.3,1.9c0,1.1,0,2.2,0,7.6v0.7c0,0.2,0.1,0.2,0.2,0.2h15.2c0.1,0,0.2,0,0.2-0.2v-0.7
		c0-5.5,0-6.5-0.1-7.6c-0.1-1.2-0.2-1.8-1.4-1.9c-0.3,0-0.9-0.1-1.2-0.1c-0.2,0-0.3-0.2-0.3-0.3c0-0.2,0.2-0.3,0.6-0.3
		c1.6,0,4,0.1,4.1,0.1c0.2,0,2.5-0.1,3.6-0.1c0.4,0,0.6,0.1,0.6,0.3c0,0.1-0.2,0.3-0.3,0.3c-0.2,0-0.5,0-0.9,0.1
		c-1,0.2-1.2,0.7-1.2,1.9c-0.1,1.1-0.1,2.1-0.1,7.6v6.2H472.1z"/>
	<path fill="#EAC426" d="M484.1,466.7c0-5.5,0-6.4-0.1-7.6s-0.3-1.8-1.5-1.9c-0.3,0-0.9-0.1-1.2-0.1c-0.1,0-0.3-0.2-0.3-0.3
		c0-0.2,0.2-0.3,0.6-0.3c1.7,0,4,0.1,4.2,0.1s7.8,0,8.7,0c0.7,0,1.4-0.2,1.7-0.2c0.2,0,0.3-0.2,0.5-0.2c0.1,0,0.2,0.2,0.2,0.3
		c0,0.2-0.2,0.7-0.3,1.7c0,0.3-0.1,1.9-0.2,2.3c0,0.2-0.2,0.4-0.3,0.4c-0.2,0-0.3-0.2-0.3-0.5c0-0.2,0-0.8-0.2-1.2
		c-0.2-0.6-0.6-0.8-2.6-1.1c-0.6-0.1-4.8-0.1-5.2-0.1c-0.2,0-0.2,0.1-0.2,0.4v9.5c0,0.2,0,0.4,0.2,0.4c0.5,0,5.2,0,6.1-0.1
		s1.4-0.1,1.8-0.5c0.2-0.2,0.4-0.5,0.5-0.5s0.2,0.1,0.2,0.3c0,0.2-0.2,0.8-0.3,1.9c-0.1,0.7-0.2,2-0.2,2.3c0,0.3-0.1,0.7-0.3,0.7
		c-0.2,0-0.2-0.1-0.2-0.3c0-0.3,0-0.7-0.2-1.2c-0.1-0.5-0.5-0.9-1.9-1.1c-1-0.1-4.9-0.2-5.5-0.2c-0.2,0-0.2,0.1-0.2,0.2v2.9
		c0,1.2,0,5.3,0,6c0.1,2.4,0.7,2.8,4.3,2.8c1,0,2.7,0,3.6-0.4c1-0.4,1.4-1,1.7-2.4c0.1-0.4,0.2-0.5,0.4-0.5s0.2,0.3,0.2,0.5
		c0,0.2-0.3,2.6-0.5,3.4c-0.2,0.9-0.6,0.9-2,0.9c-2.7,0-4.8-0.1-6.3-0.1c-1.5-0.1-2.5-0.1-3-0.1c-0.1,0-0.8,0-1.6,0
		c-0.7,0-1.5,0.1-2.1,0.1c-0.4,0-0.6-0.1-0.6-0.3c0-0.1,0.1-0.3,0.3-0.3c0.3,0,0.8-0.1,1.1-0.2c0.7-0.1,0.8-0.8,1-1.9
		c0.2-1.4,0.2-4.2,0.2-7.6v-5.9H484.1z M484.5,451c-0.9-0.3-1.2-0.5-1.2-0.7s0.2-0.2,0.5-0.3c0.9-0.2,2-0.6,2.5-0.8
		c0.3-0.1,0.5-0.2,0.7-0.2c0.2,0,0.2,0.3,0.6,0.7c0.3,0.3,2.4,1.9,4,3c0.4,0.3,0.8,0.4,0.8,0.6c0,0.1-0.2,0.2-0.4,0.2
		C491.2,453.4,485.2,451.3,484.5,451z"/>
	<path fill="#EAC426" d="M506.8,466.7c0-5.5,0-6.4-0.1-7.6s-0.3-1.8-1.5-1.9c-0.3,0-0.9-0.1-1.2-0.1c-0.1,0-0.3-0.2-0.3-0.3
		c0-0.2,0.2-0.3,0.6-0.3c1.7,0,4.1,0.1,4.3,0.1c0.4,0,3.4-0.1,4.5-0.1c2.3,0,4.9,0.2,6.8,1.5c0.9,0.7,2.5,2.4,2.5,4.8
		c0,2.6-1.1,5.1-4.5,8c3,3.7,5.5,6.9,7.6,9.1c1.9,2,3.1,2.3,4,2.4c0.7,0.1,1.1,0.1,1.3,0.1s0.3,0.2,0.3,0.3c0,0.2-0.2,0.3-0.9,0.3
		h-2.3c-2.1,0-3-0.2-3.9-0.7c-1.6-0.8-2.9-2.5-5-5.2c-1.5-1.9-3.1-4.2-3.9-5.1c-0.2-0.2-0.2-0.2-0.5-0.2l-4.6-0.1
		c-0.2,0-0.2,0.1-0.2,0.3v0.8c0,3.4,0,6.1,0.2,7.6c0.1,1,0.3,1.7,1.4,1.9c0.5,0.1,1.3,0.2,1.6,0.2c0.2,0,0.3,0.2,0.3,0.3
		c0,0.2-0.2,0.3-0.6,0.3c-2,0-4.3-0.1-4.5-0.1c0,0-2.5,0.1-3.6,0.1c-0.4,0-0.6-0.1-0.6-0.3c0-0.1,0.1-0.3,0.3-0.3
		c0.3,0,0.8-0.1,1.1-0.2c0.7-0.2,0.8-0.8,1-1.9c0.2-1.4,0.2-4.2,0.2-7.6v-6.1H506.8z M510,469.7c0,0.2,0.1,0.3,0.2,0.5
		c0.5,0.3,2.4,0.5,4,0.5c0.9,0,1.9,0,2.7-0.6c1.2-0.8,2.2-2.7,2.2-5.4c0-4.4-2.4-6.9-6.3-6.9c-1.1,0-2.2,0.1-2.6,0.2
		c-0.2,0.1-0.3,0.2-0.3,0.4L510,469.7L510,469.7z"/>
	<path fill="#EAC426" d="M534.6,466.7c0-5.5,0-6.4-0.1-7.6s-0.3-1.8-1.5-1.9c-0.3,0-0.9-0.1-1.2-0.1c-0.1,0-0.3-0.2-0.3-0.3
		c0-0.2,0.2-0.3,0.6-0.3c1.7,0,4,0.1,4.2,0.1s7.8,0,8.7,0c0.7,0,1.4-0.2,1.7-0.2c0.2,0,0.3-0.2,0.5-0.2c0.1,0,0.2,0.2,0.2,0.3
		c0,0.2-0.2,0.7-0.3,1.7c0,0.3-0.1,1.9-0.2,2.3c0,0.2-0.2,0.4-0.3,0.4c-0.2,0-0.3-0.2-0.3-0.5c0-0.2,0-0.8-0.2-1.2
		c-0.2-0.6-0.6-0.8-2.6-1.1c-0.6-0.1-4.8-0.1-5.2-0.1c-0.2,0-0.2,0.1-0.2,0.4v9.5c0,0.2,0,0.4,0.2,0.4c0.5,0,5.2,0,6.1-0.1
		c0.9-0.1,1.4-0.1,1.8-0.5c0.2-0.2,0.4-0.5,0.5-0.5s0.2,0.1,0.2,0.3c0,0.2-0.2,0.8-0.3,1.9c-0.1,0.7-0.2,2-0.2,2.3
		c0,0.3-0.1,0.7-0.3,0.7s-0.2-0.1-0.2-0.3c0-0.3,0-0.7-0.2-1.2c-0.1-0.5-0.5-0.9-1.9-1.1c-1-0.1-4.9-0.2-5.5-0.2
		c-0.2,0-0.2,0.1-0.2,0.2v2.9c0,1.2,0,5.3,0,6c0.1,2.4,0.7,2.8,4.3,2.8c1,0,2.7,0,3.6-0.4c1-0.4,1.4-1,1.7-2.4
		c0.1-0.4,0.2-0.5,0.4-0.5s0.2,0.3,0.2,0.5c0,0.2-0.3,2.6-0.5,3.4c-0.2,0.9-0.6,0.9-2,0.9c-2.7,0-4.8-0.1-6.3-0.1
		c-1.5-0.1-2.5-0.1-3-0.1c-0.1,0-0.8,0-1.6,0c-0.7,0-1.5,0.1-2.1,0.1c-0.4,0-0.6-0.1-0.6-0.3c0-0.1,0.1-0.3,0.3-0.3
		c0.3,0,0.8-0.1,1.1-0.2c0.7-0.1,0.8-0.8,1-1.9c0.2-1.4,0.2-4.2,0.2-7.6v-5.9H534.6z"/>
	<path fill="#EAC426" d="M554.3,482.6c-0.5-0.2-0.5-0.4-0.5-1.3c0-1.7,0.2-3.1,0.2-3.7c0-0.4,0.1-0.6,0.3-0.6s0.3,0.1,0.3,0.4
		s0,0.8,0.1,1.3c0.6,2.6,3.3,3.5,5.7,3.5c3.6,0,5.5-2,5.5-4.7c0-2.5-1.4-3.7-4.6-6.1l-1.7-1.2c-3.9-2.9-5.2-5.1-5.2-7.5
		c0-4.1,3.3-6.6,8.1-6.6c1.4,0,2.9,0.2,3.8,0.4c0.7,0.2,1,0.2,1.3,0.2c0.3,0,0.4,0,0.4,0.2c0,0.2-0.2,1.3-0.2,3.7
		c0,0.5,0,0.8-0.3,0.8c-0.2,0-0.3-0.2-0.3-0.5c0-0.4-0.3-1.4-0.5-1.7c-0.2-0.4-1.4-1.7-4.7-1.7c-2.6,0-4.8,1.3-4.8,3.8
		c0,2.2,1.1,3.5,4.7,5.9l1,0.7c4.4,3,5.9,5.5,5.9,8.5c0,2.1-0.8,4.3-3.4,6c-1.5,1-3.8,1.2-5.8,1.2
		C557.9,483.6,555.8,483.3,554.3,482.6z"/>
</g>
</svg>
